<?xml version="1.0" encoding="utf-8"?>
<svg version="1.1" xmlns="http://www.w3.org/2000/svg" xmlns:xlink="http://www.w3.org/1999/xlink" x="0px" y="0px" viewBox="0 0 118.74 118.74" style="enable-background:new 0 0 118.74 118.74;">
 <path fill="#FCD213" d="M26.18,2.95C14.36,5.12,5.12,14.36,2.95,26.18C1.04,36.62,0,47.78,0,59.37s1.04,22.75,2.95,33.19	c2.17,11.81,11.41,21.05,23.22,23.22c10.44,1.92,21.6,2.95,33.19,2.95s22.75-1.04,33.19-2.95c11.81-2.17,21.05-11.41,23.22-23.22	c1.92-10.44,2.95-21.6,2.95-33.19c0-11.61-1.04-22.78-2.96-33.23C113.61,14.35,104.39,5.13,92.6,2.96C82.15,1.04,70.98,0,59.37,0	C47.78,0,36.62,1.04,26.18,2.95z"/>
	<path d="M58.98,55.97c-2.33,0-4.14,1.76-4.14,4.66c0,2.9,1.81,4.66,4.14,4.66c2.33,0,4.14-1.76,4.14-4.66 C63.12,57.73,61.26,55.97,58.98,55.97z"/>
	<path d="M93.63,46.13L93.63,46.13c-1.26-11.05-9.97-19.76-21.02-21.01l-0.17-0.02c-8.68-0.98-17.44-0.98-26.13,0l-0.17,0.02 c-11.05,1.25-19.77,9.96-21.02,21.01l0,0c-0.5,4.4-0.75,8.82-0.74,13.24c0,0,0,0.27,0,0.32c0,20.04,2.65,32.03,2.65,32.03v0l0,0h0 c0.01,0,11.99,2.65,32.03,2.65c0.04,0,0.07,0,0.11,0c0.07,0,0.14,0,0.21,0c4.36,0,8.72-0.25,13.06-0.74l0.15-0.02 c11.06-1.25,19.78-9.98,21.02-21.04l0.04-0.32C94.62,63.58,94.61,54.81,93.63,46.13z M70.62,70.2c-2.33,0-3.88-0.83-4.86-1.66 c-0.57-0.47-1.03-1.03-1.35-1.71h-0.26c-0.36,0.67-0.78,1.24-1.35,1.71c-0.98,0.83-2.38,1.66-4.6,1.66c-4.71,0-8.54-3.93-8.54-9.57 s3.83-9.57,8.54-9.57c1.6,0,2.69,0.47,3.47,1.03c0.47,0.31,0.83,0.67,1.19,1.03h0.26v-1.81h4.92v11.12c0,1.81,1.24,3.1,2.85,3.1 c2.07,0,3.62-1.5,3.62-6.21c0-8.02-6.42-14.49-15.26-14.49c-8.28,0-15,6.73-15,15.52c0,8.8,6.73,15.52,15,15.52 c2.95,0,5.28-0.78,6.88-1.55c0.93-0.47,1.76-0.98,2.43-1.55l2.85,3.62c-0.88,0.88-1.97,1.6-3.16,2.23c-2.07,1.09-5.07,2.17-9,2.17 c-10.87,0-20.18-9.31-20.18-20.44c0-11.12,9.31-20.44,20.18-20.44c11.64,0,20.44,8.85,20.44,19.4C79.68,66.32,75.8,70.2,70.62,70.2 z"/>
</svg>
